HIERARCHY
ROOT Hips
{
	OFFSET 0.000000 0.000000 0.000000
	CHANNELS 6 Xposition Yposition Zposition Zrotation Yrotation Xrotation 
	JOINT LHipJoint
	{
		OFFSET 0.000000 0.000000 0.000000
		CHANNELS 3 Zrotation Yrotation Xrotation
		JOINT LeftUpLeg
		{
			OFFSET 1.363060 -1.794630 0.839290
			CHANNELS 3 Zrotation Yrotation Xrotation
			JOINT LeftLeg
			{
				OFFSET 2.448110 -6.726130 0.000000
				CHANNELS 3 Zrotation Yrotation Xrotation
				JOINT LeftFoot
				{
					OFFSET 2.562200 -7.039590 0.000000
					CHANNELS 3 Zrotation Yrotation Xrotation
					JOINT LeftToeBase
					{
						OFFSET 0.157640 -0.433110 2.322550
						CHANNELS 3 Zrotation Yrotation Xrotation
						End Site
						{
							OFFSET 0.000000 0.000000 0.000000
						}
					}
				}
			}
		}
	}
	JOINT RHipJoint
	{
		OFFSET 0.000000 0.000000 0.000000
		CHANNELS 3 Zrotation Yrotation Xrotation
		JOINT RightUpLeg
		{
			OFFSET -1.305520 -1.794630 0.839290
			CHANNELS 3 Zrotation Yrotation Xrotation
			JOINT RightLeg
			{
				OFFSET -2.542530 -6.985550 0.000000
				CHANNELS 3 Zrotation Yrotation Xrotation
				JOINT RightFoot
				{
					OFFSET -2.568260 -7.056230 0.000000
					CHANNELS 3 Zrotation Yrotation Xrotation
					JOINT RightToeBase
					{
						OFFSET -0.164730 -0.452590 2.363150
						CHANNELS 3 Zrotation Yrotation Xrotation
						End Site
						{
							OFFSET 0.000000 0.000000 0.000000
						}
					}
				}
			}
		}
	}
	JOINT LowerBack
	{
		OFFSET 0.000000 0.000000 0.000000
		CHANNELS 3 Zrotation Yrotation Xrotation
		JOINT Spine
		{
			OFFSET 0.028270 2.035590 -0.193380
			CHANNELS 3 Zrotation Yrotation Xrotation
			JOINT Spine1
			{
				OFFSET 0.056720 2.048850 -0.042750
				CHANNELS 3 Zrotation Yrotation Xrotation
				JOINT Neck
				{
					OFFSET 0.000000 0.000000 0.000000
					CHANNELS 3 Zrotation Yrotation Xrotation
					JOINT Neck1
					{
						OFFSET -0.054170 1.746240 0.172020
						CHANNELS 3 Zrotation Yrotation Xrotation
						JOINT Head
						{
							OFFSET 0.104070 1.761360 -0.123970
							CHANNELS 3 Zrotation Yrotation Xrotation
							End Site
							{
								OFFSET 0.000000 0.000000 0.000000
							}
						}
					}
				}
				JOINT LeftShoulder
				{
					OFFSET 0.000000 0.000000 0.000000
					CHANNELS 3 Zrotation Yrotation Xrotation
					JOINT LeftArm
					{
						OFFSET 3.362410 1.200890 -0.311210
						CHANNELS 3 Zrotation Yrotation Xrotation
						JOINT LeftForeArm
						{
							OFFSET 4.983000 -0.000000 -0.000000
							CHANNELS 3 Zrotation Yrotation Xrotation
							JOINT LeftHand
							{
								OFFSET 3.483560 -0.000000 -0.000000
								CHANNELS 3 Zrotation Yrotation Xrotation
								JOINT LeftFingerBase
								{
									OFFSET 0.000000 0.000000 0.000000
									CHANNELS 3 Zrotation Yrotation Xrotation
									JOINT LeftHandIndex1
									{
										OFFSET 0.715260 -0.000000 -0.000000
										CHANNELS 3 Zrotation Yrotation Xrotation
										End Site
										{
											OFFSET 0.000000 0.000000 0.000000
										}
									}
								}
								JOINT LThumb
								{
									OFFSET 0.000000 0.000000 0.000000
									CHANNELS 3 Zrotation Yrotation Xrotation
									End Site
									{
										OFFSET 0.000000 0.000000 0.000000
									}
								}
							}
						}
					}
				}
				JOINT RightShoulder
				{
					OFFSET 0.000000 0.000000 0.000000
					CHANNELS 3 Zrotation Yrotation Xrotation
					JOINT RightArm
					{
						OFFSET -3.136600 1.374050 -0.404650
						CHANNELS 3 Zrotation Yrotation Xrotation
						JOINT RightForeArm
						{
							OFFSET -5.241900 -0.000000 -0.000000
							CHANNELS 3 Zrotation Yrotation Xrotation
							JOINT RightHand
							{
								OFFSET -3.444170 -0.000000 -0.000000
								CHANNELS 3 Zrotation Yrotation Xrotation
								JOINT RightFingerBase
								{
									OFFSET 0.000000 0.000000 0.000000
									CHANNELS 3 Zrotation Yrotation Xrotation
									JOINT RightHandIndex1
									{
										OFFSET -0.622530 -0.000000 -0.000000
										CHANNELS 3 Zrotation Yrotation Xrotation
										End Site
										{
											OFFSET 0.000000 0.000000 0.000000
										}
									}
								}
								JOINT RThumb
								{
									OFFSET 0.000000 0.000000 0.000000
									CHANNELS 3 Zrotation Yrotation Xrotation
									End Site
									{
										OFFSET 0.000000 0.000000 0.000000
									}
								}
							}
						}
					}
				}
			}
		}
	}
}
MOTION
Frames: 6
Frame Time: 0.008333
16.302572 16.513457 1.208263 -18.889688 -89.454574 58.178145 -9.007840 -1.279988 5.850293 2.916371 -19.602588 -55.137625 -0.283026 -0.305295 33.994515 4.619856 14.717898 -27.974749 -5.071200 0.000000 -33.048400 6.073099 -0.019765 6.286150 1.102087 22.048108 -54.651754 1.086086 -0.050485 34.273056 -5.018439 -9.594644 -33.468754 4.793200 0.000000 -37.552800 1.986874 -2.012753 -9.476405 -0.125420 -2.542591 -5.078261 -5.444319 -2.725918 -0.546065 11.725788 -11.292229 -13.971504 -2.453639 -0.081884 -2.139002 0.000000 0.000000 0.000000 2.737281 7.513801 2.961778 -80.461472 7.510672 4.553193 -0.813413 -59.054243 -0.061944 29.146477 -17.217606 -4.610713 -0.211532 0.273588 -0.000000 0.000000 0.000000 0.000000 0.000000 0.000000 0.000000 12.119264 -6.315350 2.388589 80.166294 9.854523 14.249508 1.377282 49.954089 -0.037657 -15.047731 14.388734 -1.980201 0.189265 -0.347719 0.000000 0.000000 0.000000 0.000000 0.000000 0.000000 0.000000 
16.279896 16.418560 1.208576 -14.589198 -89.695258 54.797555 -8.928475 -1.282682 5.920831 2.917402 -19.708046 -57.268788 -0.267531 -0.147784 36.161971 4.754973 14.820123 -29.162138 -5.415300 -0.000000 -32.348100 6.139935 0.128056 6.350623 0.585805 22.052970 -57.027576 0.952381 -0.268441 36.917870 -5.107350 -9.667375 -34.357065 4.988900 0.000000 -36.992200 1.808674 -2.008254 -9.586744 -0.167037 -2.525066 -5.136207 -5.429875 -2.714008 -0.632748 11.780729 -11.275648 -14.083524 -2.432125 -0.077139 -2.193112 0.000000 0.000000 0.000000 2.867505 7.346335 3.020330 -80.514737 7.842362 4.954788 -0.785206 -59.607195 -0.064297 29.323455 -17.312184 -4.667292 -0.214598 0.280011 -0.000000 0.000000 0.000000 0.000000 0.000000 0.000000 0.000000 12.065412 -6.267182 2.459550 80.371217 9.683404 14.522605 1.339833 50.514118 -0.039322 -15.269951 14.654408 -2.047284 0.190926 -0.354845 0.000000 0.000000 0.000000 0.000000 0.000000 0.000000 0.000000 
16.256905 16.314802 1.209064 -8.644348 -89.944984 49.788910 -8.841955 -1.256593 6.003537 2.933315 -19.819526 -59.492461 -0.242041 0.029760 38.437853 4.897474 14.955990 -30.371889 -5.775500 -0.000000 -31.473301 6.221717 0.316778 6.422226 0.056805 22.053346 -59.456528 0.812430 -0.483258 39.633732 -5.191683 -9.743672 -35.241500 5.186300 -0.000001 -36.338400 1.644870 -1.992571 -9.720030 -0.205802 -2.500547 -5.198825 -5.416905 -2.695822 -0.715930 11.835945 -11.260804 -14.193526 -2.412524 -0.072581 -2.246634 0.000000 0.000000 0.000000 2.981162 7.184146 3.075844 -80.543693 8.145563 5.310144 -0.758379 -60.141147 -0.066648 29.494586 -17.408990 -4.723974 -0.217403 0.286292 -0.000000 0.000000 0.000000 0.000000 0.000000 0.000000 0.000000 12.023012 -6.222441 2.530544 80.534284 9.548340 14.809640 1.305863 51.039759 -0.040951 -15.519018 14.941532 -2.122265 0.193028 -0.361870 0.000000 0.000000 0.000000 0.000000 0.000000 0.000000 0.000000 
16.233406 16.201996 1.210012 178.836251 -89.823779 -136.737797 -8.734514 -1.200289 6.097303 2.985030 -19.937787 -61.805757 -0.201358 0.222634 40.817494 5.045903 15.129031 -31.572943 -6.145900 -0.000000 -30.442001 6.331358 0.548208 6.507298 -0.481321 22.064552 -61.931911 0.665551 -0.696199 42.400048 -5.271736 -9.839752 -36.104806 5.386000 -0.000001 -35.579100 1.528744 -1.963923 -9.880019 -0.234441 -2.471720 -5.267054 -5.407395 -2.674041 -0.795966 11.891527 -11.245906 -14.300742 -2.396063 -0.068379 -2.299173 0.000000 0.000000 0.000000 3.069423 7.023650 3.128572 -80.552835 8.424537 5.599677 -0.732331 -60.656566 -0.069001 29.673513 -17.508962 -4.782956 -0.219905 0.292296 -0.000000 0.000000 0.000000 0.000000 0.000000 0.000000 0.000000 11.995458 -6.179828 2.601291 80.652515 9.446257 15.107255 1.275435 51.533667 -0.042533 -15.792935 15.240208 -2.203744 0.195572 -0.368691 0.000000 0.000000 0.000000 0.000000 0.000000 0.000000 0.000000 
16.208963 16.080084 1.211629 -172.679143 -89.654355 -144.252821 -8.594898 -1.128748 6.198848 3.086838 -20.071360 -64.199205 -0.140927 0.421285 43.297160 5.197470 15.335715 -32.733776 -6.519500 -0.000000 -29.283800 6.479531 0.808807 6.611090 -1.028360 22.088131 -64.450391 0.511359 -0.914114 45.201172 -5.347964 -9.973509 -36.934466 5.589001 0.000000 -34.702900 1.487333 -1.930724 -10.067144 -0.246103 -2.450003 -5.339127 -5.401509 -2.659705 -0.866342 11.950676 -11.243445 -14.411707 -2.382337 -0.064429 -2.352631 0.000000 0.000000 0.000000 3.130023 6.881501 3.178533 -80.547037 8.653737 5.830126 -0.707579 -61.132517 -0.071336 29.876725 -17.611843 -4.847142 -0.222217 0.297904 -0.000000 0.000000 0.000000 0.000000 0.000000 0.000000 0.000000 11.988558 -6.157986 2.668937 80.721903 9.393628 15.433303 1.248791 51.989124 -0.044062 -16.096225 15.539452 -2.291123 0.198640 -0.375095 0.000000 0.000000 0.000000 0.000000 0.000000 0.000000 0.000000 
16.183876 15.949296 1.214097 -164.133828 -89.586000 -151.818520 -8.432901 -1.074239 6.305148 3.239595 -20.235969 -66.653135 -0.058244 0.616018 45.868017 5.347671 15.569193 -33.825838 -6.888800 -0.000000 -28.034400 6.657072 1.068012 6.733602 -1.587857 22.108109 -67.003840 0.349612 -1.144403 48.024112 -5.420787 -10.156539 -37.719644 5.795900 0.000000 -33.721100 1.516062 -1.910012 -10.278034 -0.240844 -2.450774 -5.414798 -5.399393 -2.667781 -0.930186 12.012262 -11.245056 -14.522862 -2.373430 -0.061004 -2.406010 0.000000 0.000000 0.000000 3.157650 6.738389 3.228136 -80.529849 8.840418 5.982330 -0.684082 -61.570058 -0.073652 30.112095 -17.715114 -4.917227 -0.224368 0.303038 -0.000000 0.000000 0.000000 0.000000 0.000000 0.000000 0.000000 12.007598 -6.155131 2.733042 80.742294 9.380041 15.770828 1.224411 52.410431 -0.045571 -16.420435 15.828026 -2.381604 0.201988 -0.381003 0.000000 0.000000 0.000000 0.000000 0.000000 0.000000 0.000000 
